<?xml version="1.0" encoding="UTF-8" standalone="no" ?>
<!DOCTYPE svg PUBLIC "-//W3C//DTD SVG 1.1//EN" "http://www.w3.org/Graphics/SVG/1.1/DTD/svg11.dtd">
<svg xmlns="http://www.w3.org/2000/svg" xmlns:xlink="http://www.w3.org/1999/xlink" version="1.1" width="500" height="500" viewBox="0 0 500 500" xml:space="preserve">
<desc>Created with Fabric.js 4.6.0</desc>
<defs>
</defs>
<g transform="matrix(5.36 0 0 5.36 250 294.04)" id="TdV-LCfdwdOzbEStIMHXB"  >
<path style="stroke: none; stroke-width: 1; stroke-dasharray: none; stroke-linecap: butt; stroke-dashoffset: 0; stroke-linejoin: miter; stroke-miterlimit: 4; fill: rgb(0,0,0); fill-rule: nonzero; opacity: 1;" vector-effect="non-scaling-stroke"  transform=" translate(-49.06, -56.78)" d="M 32.4 42.76 C 37.01 42.76 41.51 42.76 46 42.76 C 55.18 42.76 64.35 42.76 73.53 42.76 C 76.68 42.76 77.15 43.41 76.27 46.54 C 74.85 51.589999999999996 73.36999999999999 56.61 72.02 61.68 C 71.50999999999999 63.6 70.52 64.34 68.47999999999999 64.32 C 59.96999999999999 64.22 46.64999999999999 64.32 42.959999999999994 64.36999999999999 C 41.699999999999996 64.38 39.769999999999996 64.72999999999999 39.78999999999999 66.46 C 39.79999999999999 68.99 39.83999999999999 69.75999999999999 43.33999999999999 69.78999999999999 C 45.02999999999999 69.8 60.51999999999999 69.80999999999999 69.10999999999999 69.80999999999999 C 69.10999999999999 69.80999999999999 73.47999999999999 69.32 73.51999999999998 72.44999999999999 C 73.54999999999998 75.57999999999998 70.02999999999999 75.57999999999998 68.73999999999998 75.53999999999999 C 59.30999999999998 75.55 49.88999999999998 75.55 40.45999999999998 75.55 C 36.45999999999998 75.55 36.13999999999998 75.3 35.02999999999998 71.56 C 32.50999999999998 63.02 29.94999999999998 54.5 27.48999999999998 45.94 C 27.03999999999998 44.37 26.46999999999998 43.519999999999996 24.62999999999998 43.71 C 22.80999999999998 43.9 21.549999999999983 42.96 21.45999999999998 41 C 21.36999999999998 38.98 22.70999999999998 38.25 24.469999999999978 38.05 C 25.049999999999976 37.989999999999995 25.63999999999998 38.029999999999994 26.219999999999978 38.019999999999996 C 30.94 38 31 38.05 32.4 42.76 z" stroke-linecap="round" />
</g>
<g transform="matrix(5.36 0 0 5.36 216.69 449.74)" id="ARF1XSn1d6R3aBVveAYNH"  >
<path style="stroke: none; stroke-width: 1; stroke-dasharray: none; stroke-linecap: butt; stroke-dashoffset: 0; stroke-linejoin: miter; stroke-miterlimit: 4; fill: rgb(0,0,0); fill-rule: nonzero; opacity: 1;" vector-effect="non-scaling-stroke"  transform=" translate(-42.86, -85.79)" d="M 42.73 90.35 C 40.199999999999996 90.28999999999999 38.129999999999995 88.14999999999999 38.209999999999994 85.66 C 38.28999999999999 83.11999999999999 40.379999999999995 81.17999999999999 42.97999999999999 81.24 C 45.53999999999999 81.3 47.57999999999999 83.39999999999999 47.499999999999986 85.91 C 47.42 88.42 45.29 90.4 42.73 90.35 z" stroke-linecap="round" />
</g>
<g transform="matrix(5.36 0 0 5.36 337.61 449.74)" id="pgLJXKfADsQrfFqNn4b_f"  >
<path style="stroke: none; stroke-width: 1; stroke-dasharray: none; stroke-linecap: butt; stroke-dashoffset: 0; stroke-linejoin: miter; stroke-miterlimit: 4; fill: rgb(0,0,0); fill-rule: nonzero; opacity: 1;" vector-effect="non-scaling-stroke"  transform=" translate(-65.38, -85.79)" d="M 70.03 85.73 C 70.06 88.22 67.98 90.32000000000001 65.44 90.35000000000001 C 62.89 90.38000000000001 60.78 88.35000000000001 60.739999999999995 85.84 C 60.699999999999996 83.32000000000001 62.76 81.26 65.33 81.24000000000001 C 67.92 81.21 70 83.2 70.03 85.73 z" stroke-linecap="round" />
</g>
<g transform="matrix(5.36 0 0 5.36 219.36 154.87)" id="y8yvOickpfDwOF3iWjUIh"  >
<polyline style="stroke: rgb(0,0,0); stroke-width: 2; stroke-dasharray: none; stroke-linecap: round; stroke-dashoffset: 0; stroke-linejoin: round; stroke-miterlimit: 10; fill: none; fill-rule: nonzero; opacity: 1;" vector-effect="non-scaling-stroke"  points="2.44,3.13 0.13,8.18 -2.44,-8.18 " />
</g>
<g transform="matrix(5.36 0 0 5.36 209.75 186.75)" id="TYepAXpxgCns8TK_s4r8w"  >
<line style="stroke: rgb(0,0,0); stroke-width: 2; stroke-dasharray: none; stroke-linecap: round; stroke-dashoffset: 0; stroke-linejoin: miter; stroke-miterlimit: 10; fill: none; fill-rule: nonzero; opacity: 1;" vector-effect="non-scaling-stroke"  x1="-1.9149999999999991" y1="-2.240000000000002" x2="1.9149999999999991" y2="2.240000000000002" />
</g>
</svg>