<?xml version="1.0" encoding="UTF-8" standalone="no" ?>
<!DOCTYPE svg PUBLIC "-//W3C//DTD SVG 1.1//EN" "http://www.w3.org/Graphics/SVG/1.1/DTD/svg11.dtd">
<svg xmlns="http://www.w3.org/2000/svg" xmlns:xlink="http://www.w3.org/1999/xlink" version="1.1" width="500" height="500" viewBox="0 0 500 500" xml:space="preserve">
<desc>Created with Fabric.js 4.6.0</desc>
<defs>
</defs>
<g transform="matrix(5.29 0 0 5.29 166.83 297.43)" id="wiHOdQX5A67ro5quIbgw4"  >
<path style="stroke: none; stroke-width: 1; stroke-dasharray: none; stroke-linecap: butt; stroke-dashoffset: 0; stroke-linejoin: miter; stroke-miterlimit: 4; fill: rgb(0,0,0); fill-rule: nonzero; opacity: 1;" vector-effect="non-scaling-stroke"  transform=" translate(-36.09, -56.78)" d="M 19.43 42.76 C 24.04 42.76 28.54 42.76 33.03 42.76 C 42.21 42.76 51.38 42.76 60.56 42.76 C 63.71 42.76 64.18 43.41 63.300000000000004 46.54 C 61.88 51.589999999999996 60.400000000000006 56.61 59.050000000000004 61.68 C 58.540000000000006 63.6 57.550000000000004 64.34 55.510000000000005 64.32 C 47.00000000000001 64.22 33.68000000000001 64.32 29.990000000000006 64.36999999999999 C 28.730000000000004 64.38 26.800000000000004 64.72999999999999 26.820000000000007 66.46 C 26.83000000000001 68.99 26.870000000000008 69.75999999999999 30.370000000000008 69.78999999999999 C 32.06000000000001 69.8 47.55000000000001 69.80999999999999 56.14000000000001 69.80999999999999 C 56.14000000000001 69.80999999999999 60.510000000000005 69.32 60.55000000000001 72.44999999999999 C 60.58000000000001 75.57999999999998 57.06000000000001 75.57999999999998 55.77000000000001 75.53999999999999 C 46.34000000000001 75.55 36.92000000000001 75.55 27.49000000000001 75.55 C 23.49000000000001 75.55 23.17000000000001 75.3 22.06000000000001 71.56 C 19.54000000000001 63.02 16.98000000000001 54.5 14.52000000000001 45.94 C 14.070000000000011 44.37 13.50000000000001 43.519999999999996 11.66000000000001 43.71 C 9.84000000000001 43.9 8.58000000000001 42.96 8.49000000000001 41 C 8.400000000000011 38.98 9.74000000000001 38.25 11.50000000000001 38.05 C 12.08000000000001 37.989999999999995 12.67000000000001 38.029999999999994 13.25000000000001 38.019999999999996 C 17.96 38 18.03 38.05 19.43 42.76 z" stroke-linecap="round" />
</g>
<g transform="matrix(5.29 0 0 5.29 134.04 450.75)" id="b93LQDWDrl1uWqtXHHBS0"  >
<path style="stroke: none; stroke-width: 1; stroke-dasharray: none; stroke-linecap: butt; stroke-dashoffset: 0; stroke-linejoin: miter; stroke-miterlimit: 4; fill: rgb(0,0,0); fill-rule: nonzero; opacity: 1;" vector-effect="non-scaling-stroke"  transform=" translate(-29.89, -85.79)" d="M 29.76 90.35 C 27.23 90.28999999999999 25.160000000000004 88.14999999999999 25.240000000000002 85.66 C 25.32 83.11999999999999 27.410000000000004 81.17999999999999 30.01 81.24 C 32.57 81.3 34.61 83.39999999999999 34.53 85.91 C 34.44 88.42 32.32 90.4 29.76 90.35 z" stroke-linecap="round" />
</g>
<g transform="matrix(5.29 0 0 5.29 253.11 450.75)" id="UXeUZhYRBluEVLFFK7xoe"  >
<path style="stroke: none; stroke-width: 1; stroke-dasharray: none; stroke-linecap: butt; stroke-dashoffset: 0; stroke-linejoin: miter; stroke-miterlimit: 4; fill: rgb(0,0,0); fill-rule: nonzero; opacity: 1;" vector-effect="non-scaling-stroke"  transform=" translate(-52.41, -85.79)" d="M 57.06 85.73 C 57.09 88.22 55.010000000000005 90.32000000000001 52.47 90.35000000000001 C 49.92 90.38000000000001 47.81 88.35000000000001 47.769999999999996 85.84 C 47.73 83.32000000000001 49.79 81.26 52.36 81.24000000000001 C 54.95 81.21 57.03 83.2 57.06 85.73 z" stroke-linecap="round" />
</g>
<g transform="matrix(5.29 0 0 5.29 199.02 159.97)" id="G4nvTNGDxYwiZ4wppssy6"  >
<polyline style="stroke: rgb(0,0,0); stroke-width: 2; stroke-dasharray: none; stroke-linecap: round; stroke-dashoffset: 0; stroke-linejoin: round; stroke-miterlimit: 10; fill: none; fill-rule: nonzero; opacity: 1;" vector-effect="non-scaling-stroke"  points="1.57,3.63 -1.46,8.28 -1.57,-8.28 " />
</g>
<g transform="matrix(5.29 0 0 5.29 183.07 190.56)" id="zdl7dI6_WDOKOBa-Di8jx"  >
<line style="stroke: rgb(0,0,0); stroke-width: 2; stroke-dasharray: none; stroke-linecap: round; stroke-dashoffset: 0; stroke-linejoin: miter; stroke-miterlimit: 10; fill: none; fill-rule: nonzero; opacity: 1;" vector-effect="non-scaling-stroke"  x1="-1.5599999999999987" y1="-2.4949999999999974" x2="1.5599999999999987" y2="2.4949999999999974" />
</g>
<g transform="matrix(5.29 0 0 5.29 347.4 304.13)" id="8rtUfyuGndxhRUorqL13C"  >
<polyline style="stroke: rgb(0,0,0); stroke-width: 2; stroke-dasharray: none; stroke-linecap: round; stroke-dashoffset: 0; stroke-linejoin: round; stroke-miterlimit: 10; fill: none; fill-rule: nonzero; opacity: 1;" vector-effect="non-scaling-stroke"  points="2,-1.09 5.25,1.05 -5.25,1.09 " />
</g>
<g transform="matrix(5.29 0 0 5.29 367.02 315.75)" id="9P07mZqXVnngCFrFrPsOO"  >
<line style="stroke: rgb(0,0,0); stroke-width: 2; stroke-dasharray: none; stroke-linecap: round; stroke-dashoffset: 0; stroke-linejoin: miter; stroke-miterlimit: 10; fill: none; fill-rule: nonzero; opacity: 1;" vector-effect="non-scaling-stroke"  x1="-1.5399999999999991" y1="1.1449999999999996" x2="1.5399999999999991" y2="-1.1449999999999996" />
</g>
<g transform="matrix(5.29 0 0 5.29 388.15 224.91)" id="laCL-DZIX6E0mM-GOh7VY"  >
<path style="stroke: rgb(202,37,57); stroke-width: 1.5; stroke-dasharray: none; stroke-linecap: round; stroke-dashoffset: 0; stroke-linejoin: miter; stroke-miterlimit: 10; fill: none; fill-rule: nonzero; opacity: 1;" vector-effect="non-scaling-stroke"  transform=" translate(-77.97, -43.06)" d="M 84.03 43.06 C 84.03 46.410000000000004 81.32000000000001 49.120000000000005 77.97 49.120000000000005 C 74.62 49.120000000000005 71.91 46.410000000000004 71.91 43.06 C 71.91 39.71 74.62 37 77.96 37 C 79.55999999999999 37 81.02 37.62 82.1 38.64" stroke-linecap="round" />
</g>
<g transform="matrix(5.29 0 0 5.29 396.82 221.27)" id="Ou19dcpTHgMv_wg1aBi6d"  >
<polyline style="stroke: rgb(202,37,57); stroke-width: 1.5; stroke-dasharray: none; stroke-linecap: round; stroke-dashoffset: 0; stroke-linejoin: miter; stroke-miterlimit: 10; fill: none; fill-rule: nonzero; opacity: 1;" vector-effect="non-scaling-stroke"  points="-1.65,-3.73 -1.65,1.05 1.65,3.73 " />
</g>
</svg>