<svg width="16" height="16" viewBox="0 0 16 16" fill="none" xmlns="http://www.w3.org/2000/svg">
<path fill-rule="evenodd" clip-rule="evenodd" d="M4.9 10H15C15.55 10 16 10.45 16 11C16 11.55 15.55 12 15 12H3.99C3.48 12 3.06 11.62 3 11.11L2.1 3H1C0.45 3 0 2.55 0 2C0 1.45 0.45 1 1 1H3C3.51 1 3.93 1.38 3.99 1.89L4.9 10ZM4.5 16C5.32843 16 6 15.3284 6 14.5C6 13.6716 5.32843 13 4.5 13C3.67157 13 3 13.6716 3 14.5C3 15.3284 3.67157 16 4.5 16ZM13.5 16C14.3284 16 15 15.3284 15 14.5C15 13.6716 14.3284 13 13.5 13C12.6716 13 12 13.6716 12 14.5C12 15.3284 12.6716 16 13.5 16ZM15 5H12V9H15V5ZM6 3H11V9H6V3Z" fill="black"/>
</svg>
