<svg width="103" height="102" viewBox="0 0 103 102" fill="none" xmlns="http://www.w3.org/2000/svg">
<circle cx="51.5" cy="51" r="51" fill="#509A23"/>
<g clip-path="url(#clip0_2631_54226)">
<g clip-path="url(#clip1_2631_54226)">
<path d="M82.9113 48.7558C80.1155 45.5334 79.0565 41.8386 79.9174 37.6181C80.3745 35.3936 79.3156 34.0604 77.2434 33.3748C73.4191 32.1026 70.9128 29.4972 69.671 25.6881C68.9092 23.3722 67.3398 22.5647 65.0468 23.0522C60.9482 23.9131 57.4058 22.7932 54.3281 20.0659C52.7663 18.6794 51.357 18.6261 49.7419 20.0202C46.5576 22.7856 42.9161 23.9969 38.6652 23.0446C36.5473 22.5647 35.0846 23.3798 34.399 25.5662C33.1496 29.5353 30.5214 32.2016 26.5447 33.4434C24.3811 34.1214 23.5203 35.5688 24.0002 37.7095C24.9449 41.9605 23.7412 45.6095 20.9911 48.8015C19.6046 50.4166 19.7417 51.7345 20.9911 53.4105C22.987 56.0997 25.3563 58.7737 24.1678 62.5447C22.8575 66.3537 24.6554 68.3878 28.015 69.4086C31.3975 70.4294 32.9973 73.0501 34.1248 76.044C35.0008 78.3675 36.3645 79.5179 38.9394 78.9846C42.878 78.1695 46.3747 79.1294 49.3686 81.8033C51.1818 83.426 52.9111 83.3803 54.6785 81.7652C57.6724 79.0303 61.192 78.2533 65.1077 78.9694C67.2484 79.3655 68.7797 78.718 69.511 76.5316C70.829 72.5854 73.5334 69.9876 77.4186 68.6163C79.5746 67.8545 80.2907 66.369 79.8565 64.213C79.0337 60.1145 80.184 56.5644 82.8732 53.4486C84.214 51.8869 84.2978 50.3556 82.9113 48.7558V48.7558ZM52.0426 72.8825C39.9907 72.5397 30.3157 63.1998 30.2776 51.1175C30.2319 39.1037 39.9298 29.3448 51.9436 29.3143C63.9955 29.2915 73.6858 38.9513 73.701 51.0108C74.4628 61.7143 63.1422 73.2025 52.0426 72.8825Z" fill="#FEFEFE"/>
<path d="M51.8516 31.7215C41.3081 31.8206 32.7834 40.3453 32.6691 50.904C32.5548 61.5694 41.2395 70.3684 51.9125 70.4141C62.4865 70.4598 71.3616 61.5923 71.3235 51.0107C71.2854 40.3148 62.5093 31.6225 51.8516 31.7215ZM60.8257 47.3006C57.6794 50.3327 54.5179 53.3418 51.3259 56.3205C50.7088 56.8995 49.9394 57.3109 49.429 57.6689C48.2482 57.6308 42.1918 51.6125 42.1232 50.6221C42.0318 49.3271 42.8317 49.0833 43.784 49.5175C44.4315 49.8146 44.9571 50.4317 45.4828 50.9573C49.5 55.499 49 55.1482 53.299 51.0564C55.1959 49.2509 57.07 47.4149 59.0202 45.6627C59.7135 45.0304 60.5743 43.9944 61.5799 44.9162C62.7455 45.9903 61.4809 46.6683 60.8257 47.3006Z" fill="#FEFEFE"/>
</g>
</g>
<defs>
<clipPath id="clip0_2631_54226">
<rect width="63.8647" height="64" fill="white" transform="translate(20 19)"/>
</clipPath>
<clipPath id="clip1_2631_54226">
<rect width="63.9162" height="64" fill="white" transform="translate(20 19)"/>
</clipPath>
</defs>
</svg>
