<svg width="48" height="48" viewBox="0 0 48 48" fill="none" xmlns="http://www.w3.org/2000/svg">
<circle cx="24" cy="24" r="23" stroke="#72BF44" stroke-width="2"/>
<path d="M34.125 10.25C31.6317 10.2541 29.1976 11.0106 27.1412 12.4206C25.0849 13.8305 23.5018 15.8282 22.5993 18.1524C21.8762 17.1035 20.9092 16.2459 19.7815 15.6532C18.6538 15.0606 17.399 14.7506 16.125 14.75H12.75V18.125C12.7523 20.2129 13.5828 22.2146 15.0591 23.6909C16.5354 25.1672 18.5371 25.9977 20.625 26H21.75V36.125H22.875H24V26H25.125C28.4059 25.9963 31.5514 24.6913 33.8713 22.3713C36.1913 20.0514 37.4963 16.9059 37.5 13.625V10.25H34.125ZM20.625 23.75C19.1337 23.7483 17.7039 23.1551 16.6494 22.1006C15.5949 21.0461 15.0017 19.6163 15 18.125V17H16.125C17.6163 17.0016 19.0462 17.5948 20.1007 18.6493C21.1552 19.7038 21.7484 21.1337 21.75 22.625V23.75H20.625ZM35.25 13.625C35.247 16.3094 34.1793 18.883 32.2812 20.7812C30.383 22.6793 27.8094 23.747 25.125 23.75H24V22.625C24.003 19.9406 25.0707 17.367 26.9688 15.4688C28.867 13.5707 31.4406 12.503 34.125 12.5H35.25V13.625Z" fill="#72BF44"/>
</svg>
