<svg width="48" height="48" viewBox="0 0 48 48" fill="none" xmlns="http://www.w3.org/2000/svg">
<circle cx="24" cy="24" r="23" stroke="#CE394C" stroke-width="2"/>
<path d="M38.625 20.625H36.3525C36.3201 19.7363 36.1057 18.8636 35.7225 18.0611C35.3394 17.2585 34.7957 16.5431 34.125 15.9591V11.625C34.125 11.4161 34.0668 11.2113 33.957 11.0336C33.8471 10.8558 33.69 10.7122 33.5031 10.6188C33.3162 10.5253 33.107 10.4858 32.899 10.5045C32.6909 10.5233 32.4921 10.5996 32.325 10.725L28.1248 13.875H22.875C16.6768 13.875 12.2287 17.5213 11.6829 22.875H11.625C11.3267 22.8747 11.0407 22.7561 10.8298 22.5452C10.6189 22.3343 10.5003 22.0483 10.5 21.75V19.5H8.25V21.75C8.25098 22.6448 8.60688 23.5027 9.2396 24.1354C9.87232 24.7681 10.7302 25.124 11.625 25.125H11.7038C11.867 26.6001 12.3465 28.0226 13.1094 29.2956C13.8724 30.5685 14.901 31.6619 16.125 32.5012V36.375C16.125 36.6734 16.2435 36.9595 16.4545 37.1705C16.6655 37.3815 16.9516 37.5 17.25 37.5H21.75C22.0484 37.5 22.3345 37.3815 22.5455 37.1705C22.7565 36.9595 22.875 36.6734 22.875 36.375V34.125H26.25V36.375C26.25 36.6734 26.3685 36.9595 26.5795 37.1705C26.7905 37.3815 27.0766 37.5 27.375 37.5H31.875C32.1734 37.5 32.4595 37.3815 32.6705 37.1705C32.8815 36.9595 33 36.6734 33 36.375V32.5919C33.8126 32.2066 34.5232 31.6354 35.0741 30.9245C35.625 30.2136 36.0008 29.3831 36.1712 28.5H38.625C38.9234 28.5 39.2095 28.3815 39.4205 28.1705C39.6315 27.9595 39.75 27.6734 39.75 27.375V21.75C39.75 21.4516 39.6315 21.1655 39.4205 20.9545C39.2095 20.7435 38.9234 20.625 38.625 20.625ZM37.5 26.25H34.2645C33.9212 29.347 33.3381 30.1711 30.75 31.1048V35.25H28.5V31.875H20.625V35.25H18.375V31.1751C17.0204 30.5307 15.8776 29.5134 15.0806 28.2426C14.2835 26.9718 13.8653 25.5001 13.875 24C13.875 18.5602 18.3954 16.125 22.875 16.125H28.8752L31.875 13.875V16.9985C34.5955 19.0902 34.0267 20.5827 34.1456 22.875H37.5V26.25Z" fill="#CE394C"/>
</svg>
