<svg width="103" height="102" viewBox="0 0 103 102" fill="none" xmlns="http://www.w3.org/2000/svg">
<circle cx="51.5" cy="51" r="51" fill="#509A23"/>
<g clip-path="url(#clip0_2631_54233)">
<path d="M79.4109 41.091C76.8846 38.5646 73.8148 36.7849 70.512 35.4172C69.5505 35.017 68.571 34.7483 68.2306 33.4105C67.4124 30.2451 64.9518 29.194 61.9357 29.1462C58.0955 29.0865 54.2493 29.1462 50.415 29.0088C47.4527 28.8954 45.1056 29.8748 43.0272 31.9831C35.6991 39.3948 28.2873 46.7289 20.9174 54.0988C17.6804 57.3418 17.6804 59.1753 21.001 62.5258C25.5699 67.1425 30.1746 71.7233 34.7972 76.2802C38.315 79.7442 40.5008 79.7322 44.0783 76.1846C50.4389 69.8838 56.7935 63.577 63.0645 57.1925C66.3194 53.8778 69.5638 50.2019 73.9999 52.4086C77.0293 53.1881 81.4714 51.017 82.2537 48.3653C83.1735 45.2477 81.3758 43.0559 79.4109 41.091ZM78.2104 47.0812C77.7506 48.3414 76.2754 48.3175 75.1287 48.3175C70.6852 48.3175 66.63 46.8662 62.7957 44.764C61.3325 43.9637 60.2037 43.253 58.2866 44.1428C56.1903 45.1163 54.2134 44.0234 53.2997 41.7718C52.4814 39.7651 53.5744 37.5075 55.599 36.7013C57.7431 35.8412 60.2993 36.761 60.8249 39.0842C61.6192 42.6139 64.7188 42.8468 67.1078 44.1249C68.0693 44.6385 68.5531 44.1189 68.5173 43.0499C68.4814 41.8853 68.5053 40.7207 68.5053 39.1619C71.9753 40.4161 74.6091 42.0644 76.8428 44.328C77.5893 45.0805 78.5987 46.0062 78.2104 47.0812Z" fill="#FEFEFE"/>
</g>
<defs>
<clipPath id="clip0_2631_54233">
<rect width="64" height="49.8634" fill="white" transform="translate(18.5 29)"/>
</clipPath>
</defs>
</svg>
