<svg width="24" height="24" viewBox="0 0 24 24" fill="none" xmlns="http://www.w3.org/2000/svg">
<path d="M18 10.5H16.5V6C16.5 4.80653 16.0259 3.66193 15.182 2.81802C14.3381 1.97411 13.1935 1.5 12 1.5C10.8065 1.5 9.66193 1.97411 8.81802 2.81802C7.97411 3.66193 7.5 4.80653 7.5 6V10.5H6C5.60218 10.5 5.22064 10.658 4.93934 10.9393C4.65804 11.2206 4.5 11.6022 4.5 12V21C4.5 21.3978 4.65804 21.7794 4.93934 22.0607C5.22064 22.342 5.60218 22.5 6 22.5H18C18.3978 22.5 18.7794 22.342 19.0607 22.0607C19.342 21.7794 19.5 21.3978 19.5 21V12C19.5 11.6022 19.342 11.2206 19.0607 10.9393C18.7794 10.658 18.3978 10.5 18 10.5ZM9 6C9 5.20435 9.31607 4.44129 9.87868 3.87868C10.4413 3.31607 11.2044 3 12 3C12.7956 3 13.5587 3.31607 14.1213 3.87868C14.6839 4.44129 15 5.20435 15 6V10.5H9V6ZM18 21H6V12H18V21Z" fill="#72BF44"/>
</svg>
