<svg width="24" height="24" viewBox="0 0 24 24" fill="none" xmlns="http://www.w3.org/2000/svg">
<path fill-rule="evenodd" clip-rule="evenodd" d="M12.5067 0H11.5072H11.0875C8.57173 0.186045 6.17963 1.16475 4.25471 2.79556C2.32979 4.42636 0.971084 6.62538 0.373704 9.07681C0.173685 9.8387 0.0531114 10.6193 0.0139126 11.406C-0.0967729 13.7027 0.454818 15.9829 1.603 17.9749C2.75118 19.967 4.44757 21.587 6.49016 22.6421C7.66844 23.2683 8.94684 23.6844 10.268 23.8716C11.2342 24.0148 12.2143 24.0383 13.1863 23.9416C15.4363 23.7429 17.5794 22.8918 19.3527 21.4925C21.586 19.7919 23.1385 17.3493 23.7302 14.6049C23.8807 13.948 23.971 13.2788 24 12.6056C23.9944 12.5691 23.9944 12.5321 24 12.4956V11.496V11.0661C23.8878 9.50088 23.4522 7.97595 22.7207 6.58769C21.945 5.02758 20.8355 3.65733 19.471 2.57413C18.1065 1.49093 16.5205 0.721318 14.8253 0.319888C14.0961 0.133085 13.3489 0.0258306 12.5966 0H12.5067ZM20.4996 6.31985C21.622 7.99994 22.221 9.97517 22.221 11.9958C22.2184 14.7045 21.1414 17.3016 19.2265 19.217C17.3115 21.1323 14.7151 22.2096 12.007 22.2122C9.9868 22.2122 8.01202 21.613 6.33232 20.4904C4.65262 19.3678 3.34346 17.7722 2.57038 15.9054C1.7973 14.0386 1.59503 11.9845 1.98914 10.0027C2.38325 8.02088 3.35605 6.20049 4.78451 4.77169C6.21298 3.3429 8.03295 2.36988 10.0143 1.97568C11.9956 1.58148 14.0493 1.7838 15.9157 2.55705C17.7821 3.33031 19.3773 4.63977 20.4996 6.31985ZM8.92554 8.43774V9.12053V9.13678H7.1373C7.03529 9.13258 6.93435 9.15897 6.84745 9.21256C6.76054 9.26615 6.69164 9.3445 6.64959 9.43753C6.44982 9.83324 6.25549 10.2326 6.06232 10.6295C5.84679 11.0725 5.63269 11.5124 5.41408 11.9411C5.38072 12.0065 5.36397 12.079 5.36531 12.1524V14.3877C5.36467 14.5026 5.40673 14.6136 5.48334 14.6992C5.55994 14.7848 5.66561 14.8389 5.77986 14.851H6.39761C6.4245 14.8462 6.45222 14.852 6.47496 14.8671C6.49769 14.8823 6.51367 14.9056 6.51954 14.9323C6.63399 15.2112 6.8288 15.4498 7.0792 15.6177C7.3296 15.7856 7.62427 15.8753 7.92575 15.8753C8.22723 15.8753 8.5219 15.7856 8.7723 15.6177C9.0227 15.4498 9.21751 15.2112 9.33196 14.9323C9.33966 14.9029 9.35812 14.8773 9.38369 14.8608C9.40926 14.8442 9.44011 14.8379 9.47014 14.8429H13.4774C13.5086 14.8381 13.5404 14.8456 13.5662 14.8638C13.592 14.882 13.6097 14.9095 13.6156 14.9405C13.7434 15.2544 13.9735 15.5159 14.2686 15.6826C14.5637 15.8493 14.9065 15.9115 15.2413 15.859C15.5028 15.8207 15.7494 15.7131 15.9552 15.5472C16.1611 15.3814 16.3187 15.1635 16.4118 14.9161C16.4176 14.8915 16.4327 14.8702 16.4539 14.8566C16.4752 14.8429 16.5008 14.838 16.5256 14.8429H17.0621C17.1327 14.8477 17.2035 14.8373 17.2698 14.8125C17.3361 14.7876 17.3963 14.7489 17.4463 14.6988C17.4964 14.6488 17.5351 14.5886 17.56 14.5223C17.5848 14.456 17.5952 14.3852 17.5904 14.3146V8.42961C17.5966 8.35867 17.5872 8.28723 17.5628 8.22031C17.5385 8.15339 17.4998 8.09262 17.4494 8.04226C17.3991 7.9919 17.3383 7.95319 17.2714 7.92883C17.2044 7.90447 17.133 7.89506 17.0621 7.90127H9.46202C9.39001 7.89508 9.31751 7.90471 9.24961 7.92948C9.18172 7.95425 9.12005 7.99357 9.06895 8.04467C9.01784 8.09578 8.97852 8.15744 8.95375 8.22534C8.92898 8.29324 8.91935 8.36573 8.92554 8.43774ZM13.4937 13.8594H9.90908V8.8848H16.5987V13.8756C16.5224 13.8884 16.4859 13.8944 16.4615 13.88C16.4391 13.8668 16.427 13.8364 16.4037 13.7781C16.2923 13.496 16.0986 13.2539 15.8478 13.0833C15.597 12.9127 15.3007 12.8215 14.9974 12.8215C14.6941 12.8215 14.3979 12.9127 14.1471 13.0833C13.8963 13.2539 13.7026 13.496 13.5912 13.7781C13.575 13.8594 13.5587 13.8594 13.4937 13.8594ZM8.50287 10.3317V10.9413V11.5184C8.51098 11.5686 8.5072 11.6201 8.49182 11.6686C8.47644 11.7171 8.44989 11.7613 8.41431 11.7976C8.37873 11.834 8.33512 11.8615 8.28697 11.878C8.23882 11.8944 8.18748 11.8993 8.13709 11.8923H6.8528C6.69024 11.8842 6.60895 11.7623 6.69024 11.6078C6.7532 11.4796 6.81549 11.3513 6.87769 11.2232C7.0323 10.9049 7.18633 10.5878 7.34864 10.2748C7.39371 10.1864 7.4624 10.1123 7.54706 10.0607C7.63172 10.009 7.72904 9.98182 7.82821 9.98214H8.14522C8.19269 9.97721 8.24068 9.98279 8.28575 9.9985C8.33083 10.0142 8.37189 10.0396 8.40603 10.073C8.44017 10.1064 8.46654 10.1468 8.48328 10.1915C8.50001 10.2362 8.5067 10.2841 8.50287 10.3317ZM15.5803 13.7886C15.7328 13.941 15.8184 14.1478 15.8184 14.3633C15.8184 14.5789 15.7328 14.7857 15.5803 14.9381C15.4279 15.0905 15.2212 15.1762 15.0056 15.1762C14.79 15.1762 14.5832 15.0905 14.4308 14.9381C14.2784 14.7857 14.1927 14.5789 14.1927 14.3633C14.1927 14.1478 14.2784 13.941 14.4308 13.7886C14.5832 13.6361 14.79 13.5505 15.0056 13.5505C15.2212 13.5505 15.4279 13.6361 15.5803 13.7886ZM7.35912 13.7886C7.51155 13.6361 7.7183 13.5505 7.93388 13.5505L7.92575 13.5424C8.03386 13.5413 8.14111 13.5618 8.2412 13.6026C8.3413 13.6435 8.43223 13.704 8.50868 13.7804C8.58514 13.8569 8.64557 13.9478 8.68644 14.0479C8.72731 14.148 8.7478 14.2552 8.74672 14.3633C8.74672 14.5789 8.66108 14.7857 8.50864 14.9381C8.35621 15.0905 8.14946 15.1762 7.93388 15.1762C7.7183 15.1762 7.51155 15.0905 7.35912 14.9381C7.20668 14.7857 7.12104 14.5789 7.12104 14.3633C7.12104 14.1478 7.20668 13.941 7.35912 13.7886Z" fill="#9D9D9C"/>
</svg>
