<svg width="24" height="24" viewBox="0 0 24 24" fill="none" xmlns="http://www.w3.org/2000/svg">
<path fill-rule="evenodd" clip-rule="evenodd" d="M12.5067 0H11.5072H11.0875C8.57173 0.186045 6.17963 1.16475 4.25471 2.79556C2.32979 4.42636 0.971084 6.62538 0.373704 9.07681C0.173685 9.8387 0.0531114 10.6193 0.0139126 11.406C-0.0967729 13.7027 0.454818 15.9829 1.603 17.9749C2.75118 19.967 4.44757 21.587 6.49016 22.6421C7.66844 23.2683 8.94684 23.6844 10.268 23.8716C11.2342 24.0148 12.2143 24.0383 13.1863 23.9416C15.4363 23.7429 17.5794 22.8918 19.3527 21.4925C21.586 19.7919 23.1385 17.3493 23.7302 14.6049C23.8807 13.948 23.971 13.2788 24 12.6056C23.9944 12.5691 23.9944 12.5321 24 12.4956V11.496V11.0661C23.8878 9.50088 23.4522 7.97595 22.7207 6.58769C21.945 5.02758 20.8355 3.65733 19.471 2.57413C18.1065 1.49093 16.5205 0.721318 14.8253 0.319888C14.0961 0.133085 13.3489 0.0258306 12.5966 0H12.5067ZM20.4996 6.31985C21.622 7.99994 22.221 9.97517 22.221 11.9958C22.2184 14.7045 21.1414 17.3016 19.2265 19.217C17.3115 21.1323 14.7151 22.2096 12.007 22.2122C9.9868 22.2122 8.01202 21.613 6.33232 20.4904C4.65262 19.3678 3.34346 17.7722 2.57038 15.9054C1.7973 14.0386 1.59503 11.9845 1.98914 10.0027C2.38325 8.02088 3.35605 6.20049 4.78451 4.77169C6.21298 3.3429 8.03295 2.36988 10.0143 1.97568C11.9956 1.58148 14.0493 1.7838 15.9157 2.55705C17.7821 3.33031 19.3773 4.63977 20.4996 6.31985ZM16.2004 9.23433L16.4768 7.41357L6.93408 8.42149L16.2004 9.23433ZM15.7208 12.9326L15.9646 11.1118L6.44629 12.1197L15.7208 12.9326ZM15.4444 14.8184L15.2087 16.631L5.89355 15.8181L15.4444 14.8184Z" fill="#9D9D9C"/>
</svg>
