<svg width="24" height="24" viewBox="0 0 24 24" fill="none" xmlns="http://www.w3.org/2000/svg">
<path fill-rule="evenodd" clip-rule="evenodd" d="M12.5067 0H11.5072H11.0875C8.57173 0.186045 6.17963 1.16475 4.25471 2.79556C2.32979 4.42636 0.971084 6.62538 0.373704 9.07681C0.173685 9.8387 0.0531114 10.6193 0.0139126 11.406C-0.0967729 13.7027 0.454818 15.9829 1.603 17.9749C2.75118 19.967 4.44757 21.587 6.49016 22.6421C7.66844 23.2683 8.94684 23.6844 10.268 23.8716C11.2342 24.0148 12.2143 24.0383 13.1863 23.9416C15.4363 23.7429 17.5794 22.8918 19.3527 21.4925C21.586 19.7919 23.1385 17.3493 23.7302 14.6049C23.8807 13.948 23.971 13.2788 24 12.6056C23.9944 12.5691 23.9944 12.5321 24 12.4956V11.496V11.0661C23.8878 9.50088 23.4522 7.97595 22.7207 6.58769C21.945 5.02758 20.8355 3.65733 19.471 2.57413C18.1065 1.49093 16.5205 0.721318 14.8253 0.319888C14.0961 0.133085 13.3489 0.0258306 12.5966 0H12.5067ZM20.4996 6.31985C21.622 7.99994 22.221 9.97517 22.221 11.9958C22.2184 14.7045 21.1414 17.3016 19.2265 19.217C17.3115 21.1323 14.7151 22.2096 12.007 22.2122C9.9868 22.2122 8.01202 21.613 6.33232 20.4904C4.65262 19.3678 3.34346 17.7722 2.57038 15.9054C1.7973 14.0386 1.59503 11.9845 1.98914 10.0027C2.38325 8.02088 3.35605 6.20049 4.78451 4.77169C6.21298 3.3429 8.03295 2.36988 10.0143 1.97568C11.9956 1.58148 14.0493 1.7838 15.9157 2.55705C17.7821 3.33031 19.3773 4.63977 20.4996 6.31985ZM15.6995 12.8146H11.0683L6.44516 12.8064C6.31155 12.8064 6.18342 12.8595 6.08895 12.954C5.99448 13.0484 5.94141 13.1766 5.94141 13.3102C5.94141 13.4438 5.99448 13.5719 6.08895 13.6664C6.18342 13.7609 6.31155 13.8139 6.44516 13.8139H16.1952C16.315 13.8175 16.4322 13.7775 16.5248 13.7013C16.6174 13.6251 16.6793 13.5179 16.6989 13.3996L17.6577 8.81706C17.6739 8.73581 17.6983 8.73581 17.7552 8.73581H19.0145C19.082 8.73908 19.1495 8.72875 19.2129 8.70541C19.2763 8.68208 19.3344 8.64622 19.3837 8.59998C19.433 8.55373 19.4724 8.49805 19.4997 8.43624C19.527 8.37442 19.5416 8.30775 19.5427 8.24018C19.5427 8.17192 19.5289 8.10437 19.5021 8.0416C19.4753 7.97884 19.436 7.92218 19.3866 7.87507C19.3372 7.82796 19.2788 7.79138 19.2148 7.76755C19.1508 7.74371 19.0827 7.73313 19.0145 7.73643H17.292C17.169 7.7326 17.0488 7.77319 16.9533 7.85078C16.8578 7.92837 16.7935 8.03777 16.772 8.15893C16.7436 8.30924 16.7131 8.45752 16.6827 8.6058C16.6522 8.75409 16.6217 8.90237 16.5933 9.05268C16.3333 10.2796 16.0814 11.4902 15.8295 12.7171C15.8133 12.8146 15.7808 12.8146 15.6995 12.8146ZM8.14313 16.2189C7.85653 16.2189 7.58166 16.105 7.37901 15.9024C7.17635 15.6997 7.0625 15.4248 7.0625 15.1382C7.0625 14.8516 7.17635 14.5768 7.37901 14.3741C7.58166 14.1715 7.85653 14.0576 8.14313 14.0576C8.42972 14.0576 8.70459 14.1715 8.90724 14.3741C9.1099 14.5768 9.22375 14.8516 9.22375 15.1382C9.22375 15.4248 9.1099 15.6997 8.90724 15.9024C8.70459 16.105 8.42972 16.2189 8.14313 16.2189ZM8.53312 15.1382C8.53315 15.034 8.49232 14.934 8.4194 14.8596C8.34649 14.7851 8.2473 14.7422 8.14313 14.7401C8.08978 14.7401 8.03695 14.7506 7.98766 14.771C7.93837 14.7915 7.89359 14.8214 7.85586 14.8591C7.81814 14.8968 7.78821 14.9416 7.7678 14.9909C7.74738 15.0402 7.73688 15.093 7.73688 15.1464C7.73688 15.1997 7.74738 15.2525 7.7678 15.3018C7.78821 15.3511 7.81814 15.3959 7.85586 15.4336C7.89359 15.4714 7.93837 15.5013 7.98766 15.5217C8.03695 15.5421 8.08978 15.5526 8.14313 15.5526C8.19612 15.5516 8.24837 15.54 8.29681 15.5185C8.34526 15.497 8.38892 15.466 8.42525 15.4274C8.46157 15.3888 8.48983 15.3434 8.50835 15.2937C8.52688 15.2441 8.5353 15.1912 8.53312 15.1382ZM14.0755 16.0367C14.2532 16.1555 14.4621 16.2189 14.6758 16.2189C14.9624 16.2189 15.2373 16.105 15.44 15.9024C15.6426 15.6997 15.7565 15.4248 15.7565 15.1382C15.7565 14.9245 15.6931 14.7156 15.5743 14.5379C15.4556 14.3602 15.2868 14.2217 15.0894 14.1399C14.8919 14.0581 14.6746 14.0367 14.465 14.0784C14.2554 14.1201 14.0629 14.223 13.9117 14.3741C13.7606 14.5253 13.6577 14.7178 13.616 14.9274C13.5743 15.137 13.5957 15.3543 13.6775 15.5518C13.7593 15.7492 13.8978 15.918 14.0755 16.0367ZM15.0109 14.923C15.0536 14.9895 15.0756 15.0673 15.074 15.1464C15.0698 15.2499 15.0263 15.3479 14.9523 15.4204C14.8783 15.4929 14.7794 15.5344 14.6758 15.5364C14.5968 15.5363 14.5195 15.5128 14.4538 15.4687C14.3882 15.4245 14.3372 15.3619 14.3073 15.2887C14.2774 15.2154 14.27 15.135 14.2861 15.0575C14.3021 14.9801 14.3408 14.9092 14.3973 14.8538C14.4538 14.7985 14.5255 14.7612 14.6033 14.7468C14.681 14.7324 14.7613 14.7414 14.8339 14.7728C14.9065 14.8042 14.9681 14.8565 15.0109 14.923Z" fill="black"/>
</svg>
