<?xml version="1.0" encoding="UTF-8"?>
<svg width="40px" height="40px" viewBox="0 0 40 40" version="1.1" xmlns="http://www.w3.org/2000/svg" xmlns:xlink="http://www.w3.org/1999/xlink">
    <title>picto_reassurance_02</title>
    <g id="01_home_page" stroke="none" stroke-width="1" fill="none" fill-rule="evenodd">
        <g id="01_home_page_institutionnel_desktop" transform="translate(-560.000000, -2530.000000)" fill="#FFFFFF" fill-rule="nonzero">
            <g id="Réassurances" transform="translate(0.000000, 2326.000000)">
                <g id="Réassurance" transform="translate(460.000000, 184.000000)">
                    <g id="Image" transform="translate(80.000000, 0.000000)">
                        <path d="M25.0308228,32.140503 C25.3674317,31.8066406 25.8685303,31.7034912 26.3079835,31.8865967 C26.7381004,32.0639152 27.0206406,32.4796494 27.0309576,32.9427903 L27.03125,32.9690552 L27.03125,35.3125 L32.96875,35.3125 C38.0864289,35.3125 42.2595411,39.4344354 42.3424916,44.5327112 L42.34375,44.6875 L42.34375,58.828125 C42.34375,59.4678121 41.8329448,59.9867147 41.196418,60 L41.171875,60 L38.828125,60 C38.1887393,60 37.669543,59.4891947 37.6565012,58.852668 L37.65625,58.828125 L37.65625,44.6875 C37.65625,42.1282074 35.59603,40.0420954 33.0461668,40.0006291 L32.96875,40 L27.03125,40 L27.03125,42.3428345 C27.03125,42.8164673 26.7462158,43.2446289 26.3079835,43.425293 C25.8795406,43.6048081 25.3880327,43.5115307 25.0508658,43.1908972 L25.0308228,43.1713867 L20.3433228,38.4848023 C19.8922909,38.0337704 19.8856581,37.3072111 20.3234243,36.8480755 L20.3433228,36.8276977 L25.0308228,32.140503 Z M53.6920166,31.8865967 C54.1230187,31.7070125 54.6133182,31.8027792 54.9495767,32.121498 L54.9691773,32.140503 L59.6566773,36.8276977 C60.1077091,37.2787296 60.114342,38.0052889 59.6765757,38.4644245 L59.6566773,38.4848023 L54.9691773,43.1713867 C54.6316528,43.5076905 54.1293335,43.6083984 53.6920166,43.425293 C53.2618997,43.2479745 52.9793594,42.8322402 52.9690424,42.3690993 L52.96875,42.3428345 L52.96875,40 L47.03125,40 C45.8993531,40 44.8742676,40.4193116 44.0634156,41.0894775 C43.5626221,39.552002 42.7679444,38.1613159 41.7214966,36.9750977 C43.2154562,35.9432309 45.0170757,35.3269434 46.9625276,35.3127506 L47.03125,35.3125 L52.96875,35.3125 L52.96875,32.9690552 C52.96875,32.4954223 53.2537842,32.0672608 53.6920166,31.8865967 Z M40,20 C40.2899882,20 40.5796912,20.1069387 40.8054307,20.320816 L40.8285523,20.3433227 L45.5157471,25.0308227 C45.8511353,25.3662109 45.9518433,25.8697509 45.7696533,26.3079834 C45.5923349,26.7381004 45.1766006,27.0206406 44.7134597,27.0309576 L44.6871949,27.03125 L42.34375,27.03125 L42.34375,33.9620972 C41.4990235,34.3328858 40.7269288,34.8220825 40,35.3723145 C39.2981378,34.841056 38.5541708,34.3666961 37.7433776,34.0008747 L37.65625,33.9620972 L37.65625,27.03125 L35.3128052,27.03125 C34.8391724,27.03125 34.4110108,26.7462158 34.2303467,26.3079834 C34.0517291,25.8783437 34.1450242,25.3859325 34.4647953,25.0507436 L34.484253,25.0308227 L39.1714478,20.3433227 C39.4003296,20.1144409 39.7003174,20 40,20 Z" id="picto_reassurance_02"></path>
                    </g>
                </g>
            </g>
        </g>
    </g>
</svg>