<svg width="103" height="102" viewBox="0 0 103 102" fill="none" xmlns="http://www.w3.org/2000/svg">
<circle cx="51.5" cy="51" r="51" fill="#72BF44"/>
<g clip-path="url(#clip0_2631_54219)">
<path d="M66.3631 25.6132C61.1816 19.5543 53.3306 17.4622 45.937 20.1617C38.6035 22.8387 33.6244 29.8048 33.5645 37.4458C33.572 40.4603 33.9769 43.4747 35.5966 46.0092C40.6506 53.9351 45.5171 61.9436 49.6263 70.4169C50.9086 73.0789 53.1806 72.9964 54.7403 70.4844C55.7151 68.9172 56.36 67.1475 57.2973 65.5504C60.9941 59.2666 64.8633 53.0878 68.4476 46.7365C72.3769 39.7629 71.4546 31.567 66.3631 25.6132ZM52.0483 45.6942C47.6917 45.6267 44.1074 41.915 44.1824 37.5658C44.2574 33.1942 47.9691 29.6174 52.3258 29.6999C56.6824 29.7823 60.2967 33.5241 60.1993 37.8433C60.1018 42.2299 56.4275 45.7617 52.0483 45.6942Z" fill="#FEFEFE"/>
<path d="M81.1357 75.7034C78.4362 78.2154 75.1069 79.5951 71.6351 80.4874C58.5951 83.8543 45.5252 83.8393 32.4852 80.4349C29.7408 79.7151 27.0713 78.6353 24.7767 76.9181C22.2797 75.0585 19.9777 72.9739 20.0002 69.4571C20.3151 68.3623 20.765 67.335 21.2974 66.3377C24.6343 60.9912 30.2507 59.724 35.7471 58.3293C37.0593 57.9918 38.1916 58.7867 38.544 60.1739C38.9565 61.7711 38.1241 62.8134 36.6769 63.3158C34.0074 64.2531 31.218 64.8905 28.751 66.3677C24.6493 68.8197 24.5818 71.0318 28.8109 73.1989C36.9693 77.3755 45.8401 77.9979 54.7784 77.7505C61.7145 77.5555 68.5682 76.6482 74.9194 73.5588C76.5691 72.7564 78.6612 71.9541 78.6687 69.8545C78.6687 67.7774 76.6666 66.8176 75.0019 66.0752C72.6474 65.018 70.1654 64.2606 67.7433 63.3458C66.3036 62.8134 65.4263 61.8011 65.8162 60.2189C66.1986 58.6592 67.4359 57.9993 68.9431 58.3593C73.4047 59.4166 77.7914 60.7438 81.2632 63.9607C85.3499 67.7549 85.2824 71.8416 81.1357 75.7034Z" fill="#FEFEFE"/>
</g>
<defs>
<clipPath id="clip0_2631_54219">
<rect width="64.285" height="64" fill="white" transform="translate(20 19)"/>
</clipPath>
</defs>
</svg>
