<?xml version="1.0" encoding="UTF-8"?>
<svg width="40px" height="32px" viewBox="0 0 40 32" version="1.1" xmlns="http://www.w3.org/2000/svg" xmlns:xlink="http://www.w3.org/1999/xlink">
    <title>picto_reassurance_01</title>
    <g id="01_home_page" stroke="none" stroke-width="1" fill="none" fill-rule="evenodd">
        <g id="01_home_page_institutionnel_desktop" transform="translate(-280.000000, -2534.000000)" fill="#FFFFFF" fill-rule="nonzero">
            <g id="Réassurances" transform="translate(0.000000, 2326.000000)">
                <g id="Réassurance" transform="translate(180.000000, 184.000000)">
                    <g id="Image" transform="translate(80.000000, 0.000000)">
                        <path d="M30.788898,54.3834735 C31.9881208,55.5826963 33.9348043,55.5826963 35.1340271,54.3834735 L50.0093177,39.5081828 C50.4364382,39.0810624 50.7649924,38.5718034 50.9785526,38.029689 C52.4734741,38.4485956 53.9273264,38.6703697 55.2086877,38.6621558 C58.3792356,38.6457281 59.430609,37.2575867 59.7755908,36.4279874 C60.1205727,35.6066019 60.3669884,33.8816924 58.1410338,31.6146686 C58.1163922,31.590027 58.0917507,31.5653854 58.0671091,31.5407439 C56.6871815,30.1608163 54.683001,28.8876688 52.4077633,27.9430756 C51.9888567,27.7705846 51.5699501,27.6145214 51.1592574,27.466672 L51.1592574,27.4420304 C51.1346158,25.6185547 49.6643358,24.1482747 47.8408601,24.1236332 L38.9288279,24.0004254 C37.7460328,23.9839977 36.6125209,24.4439735 35.7829216,25.2817867 L20.8994171,40.1570773 C19.7001943,41.3563001 19.7001943,43.3029836 20.8994171,44.5022064 L30.788898,54.3834735 Z M42.255439,29.3230031 C43.2493154,28.3291267 44.8592309,28.3291267 45.8531073,29.3230031 C46.4445048,29.9144007 46.6827066,30.7275723 46.5677127,31.4914607 C47.5451614,32.1814245 48.7115287,32.8221052 49.9600346,33.339578 C50.4035828,33.5202828 50.8307032,33.6845599 51.2413959,33.8241954 L51.1921128,30.2429548 C51.2660375,30.2758103 51.3317483,30.3004518 51.405673,30.3333072 C53.3523566,31.1464789 55.1019076,32.2471354 56.2272057,33.3724334 C56.2436334,33.3888612 56.2600611,33.4052889 56.2764888,33.4217166 C57.3442899,34.5141592 57.4592839,35.2123369 57.3689315,35.4258971 C57.0896604,36.0912193 54.0916035,36.6826168 49.541128,34.7852164 C48.2104836,34.2266743 46.9619777,33.5367105 45.9516736,32.7892498 C45.9188182,32.830319 45.8777489,32.8713883 45.8448935,32.9124576 C44.8510171,33.906334 43.2411016,33.906334 42.2472252,32.9124576 C41.2615626,31.926795 41.2615626,30.3168795 42.255439,29.3230031 Z" id="picto_reassurance_01"></path>
                    </g>
                </g>
            </g>
        </g>
    </g>
</svg>