<?xml version="1.0" encoding="UTF-8"?>
<svg width="40px" height="40px" viewBox="0 0 40 40" version="1.1" xmlns="http://www.w3.org/2000/svg" xmlns:xlink="http://www.w3.org/1999/xlink">
    <title>picto_reassurance_03</title>
    <g id="01_home_page" stroke="none" stroke-width="1" fill="none" fill-rule="evenodd">
        <g id="01_home_page_institutionnel_desktop" transform="translate(-840.000000, -2530.000000)" fill="#FFFFFF" fill-rule="nonzero">
            <g id="Réassurances" transform="translate(0.000000, 2326.000000)">
                <g id="Réassurance" transform="translate(740.000000, 184.000000)">
                    <g id="Image" transform="translate(80.000000, 0.000000)">
                        <path d="M40,20 L44.3576786,22.8685924 C44.4781578,22.9473672 44.6190259,22.9884537 44.7626947,22.987527 L44.7935174,22.9866837 L50.0044329,22.6962427 L52.346756,27.3354966 C52.4115866,27.4641603 52.5135078,27.5700711 52.639078,27.6397873 L52.6645034,27.653244 L57.3034028,30.0044329 L57.0129617,35.2153484 C57.006011,35.3593276 57.0416914,35.5017624 57.114813,35.6250645 L57.1310531,35.6511872 L60,40 L57.1310531,44.3484583 C57.0553145,44.4702986 57.0095421,44.6083451 56.997143,44.7512403 L56.9948757,44.7842971 L57.2853167,49.9952126 L52.6464174,52.3375357 C52.5177537,52.4023663 52.4118429,52.5042874 52.3421266,52.6298577 L52.32867,52.6552831 L49.9863468,57.294537 L44.7750768,57.0037414 C44.6314284,56.9971216 44.4890158,57.0325152 44.3657151,57.1055971 L44.3395925,57.1218328 L39.9907797,59.9907797 L35.6423214,57.1218328 C35.5313479,57.0516923 35.4038625,57.0115179 35.2729262,57.0047169 L35.2426548,57.0037414 L35.2064826,57.0037414 L29.9955671,57.294537 L27.653244,52.6552831 C27.5884134,52.5266194 27.4864922,52.4207087 27.360922,52.3509924 L27.3354966,52.3375357 L22.6962427,49.9952126 L22.9866837,44.7842971 C22.9936344,44.6403178 22.958263,44.498192 22.8851825,44.3746427 L22.8689469,44.3484583 L20,40 L22.8689469,35.6423214 C22.9473908,35.5215112 22.9884553,35.3806212 22.9875271,35.2372391 L22.9866837,35.2064826 L22.6962427,29.9952126 L27.3354966,27.653244 C27.4641603,27.5884134 27.570071,27.4864923 27.6397873,27.360922 L27.653244,27.3354966 L30.0044329,22.6962427 L35.2157029,22.9866837 C35.3593513,22.9936344 35.5017639,22.958263 35.6250646,22.8848943 L35.6511872,22.8685924 L40,20 Z M40,26.6180826 C32.619111,26.6180826 26.6180826,32.619111 26.6180826,40 C26.6180826,47.3805345 32.619111,53.3815629 40,53.3815629 C47.380889,53.3815629 53.3815629,47.3805345 53.3815629,40 C53.3815629,32.619111 47.380889,26.6180826 40,26.6180826 Z M40,28.0706421 C46.5819104,28.0706421 51.9290034,33.4269554 51.9290034,40 C51.9290034,46.5726901 46.5726901,51.9290034 40,51.9290034 C33.4269554,51.9290034 28.0706421,46.5726901 28.0706421,40 C28.0706421,33.4269554 33.4180896,28.0706421 40,28.0706421 Z M46.0098942,36.1143323 C45.739741,35.829595 45.2938043,35.8117628 45.002344,36.0701574 L44.9839531,36.0870259 L38.3023919,42.3873611 L35.034133,39.0283172 C34.7522032,38.7474512 34.2968598,38.745678 34.0131568,39.0244163 C33.7351428,39.2972238 33.7234528,39.7395411 33.9817437,40.0268763 L33.9989716,40.0453925 L37.7665479,43.9126195 C37.9016615,44.0537618 38.0889055,44.1324894 38.2839513,44.1308374 C38.4611593,44.1330776 38.6322863,44.068222 38.7629747,43.9498403 L45.9825878,37.1402734 C46.2733834,36.8643723 46.2857953,36.405128 46.0098942,36.1143323 Z" id="picto_reassurance_03"></path>
                    </g>
                </g>
            </g>
        </g>
    </g>
</svg>